<?xml version="1.0" standalone="no"?>
<svg xmlns:xlink="http://www.w3.org/1999/xlink" id="wave" style="transform:rotate(180deg); transition: 0.3s" viewBox="0 0 1440 490" version="1.1" xmlns="http://www.w3.org/2000/svg"><defs><linearGradient id="sw-gradient-0" x1="0" x2="0" y1="1" y2="0"><stop stop-color="rgba(65, 67, 69, 1)" offset="0%"/><stop stop-color="rgba(61, 61, 61, 1)" offset="100%"/></linearGradient></defs><path style="transform:translate(0, 0px); opacity:1" fill="url(#sw-gradient-0)" d="M0,343L48,302.2C96,261,192,180,288,155.2C384,131,480,163,576,212.3C672,261,768,327,864,318.5C960,310,1056,229,1152,236.8C1248,245,1344,343,1440,351.2C1536,359,1632,278,1728,277.7C1824,278,1920,359,2016,359.3C2112,359,2208,278,2304,269.5C2400,261,2496,327,2592,294C2688,261,2784,131,2880,65.3C2976,0,3072,0,3168,65.3C3264,131,3360,261,3456,261.3C3552,261,3648,131,3744,81.7C3840,33,3936,65,4032,138.8C4128,212,4224,327,4320,375.7C4416,425,4512,408,4608,408.3C4704,408,4800,425,4896,392C4992,359,5088,278,5184,236.8C5280,196,5376,196,5472,204.2C5568,212,5664,229,5760,228.7C5856,229,5952,212,6048,228.7C6144,245,6240,294,6336,261.3C6432,229,6528,114,6624,65.3C6720,16,6816,33,6864,40.8L6912,49L6912,490L6864,490C6816,490,6720,490,6624,490C6528,490,6432,490,6336,490C6240,490,6144,490,6048,490C5952,490,5856,490,5760,490C5664,490,5568,490,5472,490C5376,490,5280,490,5184,490C5088,490,4992,490,4896,490C4800,490,4704,490,4608,490C4512,490,4416,490,4320,490C4224,490,4128,490,4032,490C3936,490,3840,490,3744,490C3648,490,3552,490,3456,490C3360,490,3264,490,3168,490C3072,490,2976,490,2880,490C2784,490,2688,490,2592,490C2496,490,2400,490,2304,490C2208,490,2112,490,2016,490C1920,490,1824,490,1728,490C1632,490,1536,490,1440,490C1344,490,1248,490,1152,490C1056,490,960,490,864,490C768,490,672,490,576,490C480,490,384,490,288,490C192,490,96,490,48,490L0,490Z"/></svg>